{
  "accessors": [
    {
      "bufferView": 0,
      "componentType": 5125,
      "count": 6234,
      "type": "SCALAR"
    },
    {
      "bufferView": 1,
      "componentType": 5126,
      "count": 1743,
      "max": [
        0.11351438741872377,
        0.11859599315298873,
        0.029999999242136255
      ],
      "min": [
        -0.11351438741872372,
        -0.11859599315298869,
        -0.029999999242136255
      ],
      "type": "VEC3"
    },
    {
      "bufferView": 2,
      "componentType": 5126,
      "count": 1743,
      "max": [
        0.9999970322066861,
        0.999999354860849,
        1.0
      ],
      "min": [
        -0.9999955694849992,
        -0.9999999992811424,
        -1.0
      ],
      "type": "VEC3"
    },
    {
      "bufferView": 3,
      "componentType": 5126,
      "count": 1743,
      "max": [
        1.0,
        0.9321896057623509
      ],
      "min": [
        0.0,
        0.0
      ],
      "type": "VEC2"
    }
  ],
  "asset": {
    "generator": "Adobe Illustrator",
    "version": "2.0"
  },
  "bufferViews": [
    {
      "buffer": 0,
      "byteLength": 24936,
      "target": 34963
    },
    {
      "buffer": 0,
      "byteLength": 20916,
      "byteOffset": 24936,
      "target": 34962
    },
    {
      "buffer": 0,
      "byteLength": 20916,
      "byteOffset": 45852,
      "target": 34962
    },
    {
      "buffer": 0,
      "byteLength": 13944,
      "byteOffset": 66768,
      "target": 34962
    }
  ],
  "buffers": [
    {
      "byteLength": 80712,
      "uri": "data:application/octet-stream;base64,"
    }
  ],
  "materials": [
    {
      "doubleSided": true,
      "pbrMetallicRoughness": {
        "baseColorFactor": [
          0.92578125,
          0.1210937574505806,
          0.140625,
          1.0
        ],
        "metallicFactor": 0.0,
        "roughnessFactor": 0.4000000059604645
      }
    }
  ],
  "meshes": [
    {
      "primitives": [
        {
          "attributes": {
            "NORMAL": 2,
            "POSITION": 1,
            "TEXCOORD_0": 3
          },
          "indices": 0,
          "material": 0,
          "mode": 4
        }
      ]
    }
  ],
  "nodes": [
    {
      "mesh": 0
    }
  ],
  "scenes": [
    {
      "nodes": [
        0
      ]
    }
  ]
}
