{
  "accessors": [
    {
      "bufferView": 0,
      "componentType": 5125,
      "count": 5178,
      "type": "SCALAR"
    },
    {
      "bufferView": 1,
      "componentType": 5126,
      "count": 1007,
      "max": [
        0.020027928420801977,
        0.02459882778971327,
        0.027738863304175344
      ],
      "min": [
        0.012641094042388265,
        -0.024598827149671793,
        -0.02775242906756931
      ],
      "type": "VEC3"
    },
    {
      "bufferView": 2,
      "componentType": 5126,
      "count": 1007,
      "max": [
        0.9983605694835089,
        0.997838823626209,
        1.0
      ],
      "min": [
        -0.9990950353830187,
        -0.9978388238670258,
        -1.0
      ],
      "type": "VEC3"
    },
    {
      "bufferView": 3,
      "componentType": 5126,
      "count": 1007,
      "max": [
        0.9878111267318708,
        1.0
      ],
      "min": [
        0.0,
        0.0
      ],
      "type": "VEC2"
    },
    {
      "bufferView": 4,
      "componentType": 5125,
      "count": 7926,
      "type": "SCALAR"
    },
    {
      "bufferView": 5,
      "componentType": 5126,
      "count": 1555,
      "max": [
        0.06018495931053951,
        0.024598827248919777,
        0.027738648144988002
      ],
      "min": [
        0.02663803670787547,
        -0.024598827789713257,
        -0.02775242906756931
      ],
      "type": "VEC3"
    },
    {
      "bufferView": 6,
      "componentType": 5126,
      "count": 1555,
      "max": [
        0.9981575403520014,
        0.9978388019016832,
        1.0
      ],
      "min": [
        -0.9981575439383439,
        -0.9984546878321203,
        -1.0
      ],
      "type": "VEC3"
    },
    {
      "bufferView": 7,
      "componentType": 5126,
      "count": 1555,
      "max": [
        1.0,
        0.8238250063369995
      ],
      "min": [
        0.0,
        0.0
      ],
      "type": "VEC2"
    },
    {
      "bufferView": 8,
      "componentType": 5125,
      "count": 10680,
      "type": "SCALAR"
    },
    {
      "bufferView": 9,
      "componentType": 5126,
      "count": 2104,
      "max": [
        -0.03086197196335677,
        0.024598826924702236,
        0.027738644595387028
      ],
      "min": [
        -0.0601849593105395,
        -0.0245988275866382,
        -0.02775242906756931
      ],
      "type": "VEC3"
    },
    {
      "bufferView": 10,
      "componentType": 5126,
      "count": 2104,
      "max": [
        0.9981575473606358,
        0.9999727762137681,
        1.0
      ],
      "min": [
        -0.997838680048712,
        -0.9999727720879481,
        -1.0
      ],
      "type": "VEC3"
    },
    {
      "bufferView": 11,
      "componentType": 5126,
      "count": 2104,
      "max": [
        1.0,
        0.7866656793782074
      ],
      "min": [
        0.0,
        0.0
      ],
      "type": "VEC2"
    },
    {
      "bufferView": 12,
      "componentType": 5125,
      "count": 10788,
      "type": "SCALAR"
    },
    {
      "bufferView": 13,
      "componentType": 5126,
      "count": 2116,
      "max": [
        0.0029821952107624145,
        0.024598827422281797,
        0.02775242906756931
      ],
      "min": [
        -0.026441426677842994,
        -0.024598827453032962,
        -0.02775242906756931
      ],
      "type": "VEC3"
    },
    {
      "bufferView": 14,
      "componentType": 5126,
      "count": 2116,
      "max": [
        0.9999632324390666,
        0.9980097355556359,
        1.0
      ],
      "min": [
        -0.9981453940130212,
        -0.9980097253632294,
        -1.0
      ],
      "type": "VEC3"
    },
    {
      "bufferView": 15,
      "componentType": 5126,
      "count": 2116,
      "max": [
        0.8959031996982766,
        1.0
      ],
      "min": [
        0.0,
        0.0
      ],
      "type": "VEC2"
    }
  ],
  "asset": {
    "generator": "Adobe Illustrator",
    "version": "2.0"
  },
  "bufferViews": [
    {
      "buffer": 0,
      "byteLength": 20712,
      "target": 34963
    },
    {
      "buffer": 0,
      "byteLength": 12084,
      "byteOffset": 20712,
      "target": 34962
    },
    {
      "buffer": 0,
      "byteLength": 12084,
      "byteOffset": 32796,
      "target": 34962
    },
    {
      "buffer": 0,
      "byteLength": 8056,
      "byteOffset": 44880,
      "target": 34962
    },
    {
      "buffer": 0,
      "byteLength": 31704,
      "byteOffset": 52936,
      "target": 34963
    },
    {
      "buffer": 0,
      "byteLength": 18660,
      "byteOffset": 84640,
      "target": 34962
    },
    {
      "buffer": 0,
      "byteLength": 18660,
      "byteOffset": 103300,
      "target": 34962
    },
    {
      "buffer": 0,
      "byteLength": 12440,
      "byteOffset": 121960,
      "target": 34962
    },
    {
      "buffer": 0,
      "byteLength": 42720,
      "byteOffset": 134400,
      "target": 34963
    },
    {
      "buffer": 0,
      "byteLength": 25248,
      "byteOffset": 177120,
      "target": 34962
    },
    {
      "buffer": 0,
      "byteLength": 25248,
      "byteOffset": 202368,
      "target": 34962
    },
    {
      "buffer": 0,
      "byteLength": 16832,
      "byteOffset": 227616,
      "target": 34962
    },
    {
      "buffer": 0,
      "byteLength": 43152,
      "byteOffset": 244448,
      "target": 34963
    },
    {
      "buffer": 0,
      "byteLength": 25392,
      "byteOffset": 287600,
      "target": 34962
    },
    {
      "buffer": 0,
      "byteLength": 25392,
      "byteOffset": 312992,
      "target": 34962
    },
    {
      "buffer": 0,
      "byteLength": 16928,
      "byteOffset": 338384,
      "target": 34962
    }
  ],
  "buffers": [
    {
      "byteLength": 355312,
      "uri": "data:application/octet-stream;base64,"
    }
  ],
  "materials": [
    {
      "doubleSided": true,
      "pbrMetallicRoughness": {
        "baseColorFactor": [
          0.13671875,
          0.1210937574505806,
          0.125,
          1.0
        ],
        "metallicFactor": 0.0,
        "roughnessFactor": 0.4000000059604645
      }
    },
    {
      "doubleSided": true,
      "pbrMetallicRoughness": {
        "baseColorFactor": [
          0.13671875,
          0.1210937574505806,
          0.125,
          1.0
        ],
        "metallicFactor": 0.0,
        "roughnessFactor": 0.4000000059604645
      }
    },
    {
      "doubleSided": true,
      "pbrMetallicRoughness": {
        "baseColorFactor": [
          0.13671875,
          0.1210937574505806,
          0.125,
          1.0
        ],
        "metallicFactor": 0.0,
        "roughnessFactor": 0.4000000059604645
      }
    },
    {
      "doubleSided": true,
      "pbrMetallicRoughness": {
        "baseColorFactor": [
          0.13671875,
          0.1210937574505806,
          0.125,
          1.0
        ],
        "metallicFactor": 0.0,
        "roughnessFactor": 0.4000000059604645
      }
    }
  ],
  "meshes": [
    {
      "primitives": [
        {
          "attributes": {
            "NORMAL": 2,
            "POSITION": 1,
            "TEXCOORD_0": 3
          },
          "indices": 0,
          "material": 0,
          "mode": 4
        }
      ]
    },
    {
      "primitives": [
        {
          "attributes": {
            "NORMAL": 6,
            "POSITION": 5,
            "TEXCOORD_0": 7
          },
          "indices": 4,
          "material": 1,
          "mode": 4
        }
      ]
    },
    {
      "primitives": [
        {
          "attributes": {
            "NORMAL": 10,
            "POSITION": 9,
            "TEXCOORD_0": 11
          },
          "indices": 8,
          "material": 2,
          "mode": 4
        }
      ]
    },
    {
      "primitives": [
        {
          "attributes": {
            "NORMAL": 14,
            "POSITION": 13,
            "TEXCOORD_0": 15
          },
          "indices": 12,
          "material": 3,
          "mode": 4
        }
      ]
    }
  ],
  "nodes": [
    {
      "mesh": 0
    },
    {
      "mesh": 1
    },
    {
      "mesh": 2
    },
    {
      "mesh": 3
    }
  ],
  "scenes": [
    {
      "nodes": [
        0,
        1,
        2,
        3
      ]
    }
  ]
}
